<?xml version="1.0" encoding="UTF-8"?>
<svg id="Layer_2" data-name="Layer 2" xmlns="http://www.w3.org/2000/svg" viewBox="0 0 280.39 46.02">
  <defs>
    <style>
      .cls-1 {
        font-family: NHaasGroteskDSPro-55Rg, 'Neue Haas Grotesk Display Pro';
        font-size: 40px;
      }

      .cls-2 {
        letter-spacing: -.06em;
      }

      .cls-3 {
        letter-spacing: -.01em;
      }
    </style>
  </defs>
  <g id="Layer_1-2" data-name="Layer 1">
    <g>
      <text class="cls-1" transform="translate(63.95 36.9)"><tspan class="cls-2" x="0" y="0">W</tspan><tspan class="cls-3" x="34.16" y="0">orld Helper</tspan></text>
      <g>
        <path d="M25.17,2c5.43,0,23.17,1.32,23.17,18.36,0,12.77-10.39,23.17-23.17,23.17S2,33.13,2,20.36C2,3.32,19.73,2,25.17,2M25.17,0C11.27,0,0,6.46,0,20.36s11.27,25.17,25.17,25.17,25.17-11.27,25.17-25.17S39.07,0,25.17,0h0Z"/>
        <path d="M31.41,33.9c-4.69,0-8.5-3.81-8.5-8.5s3.81-8.5,8.5-8.5,8.5,3.81,8.5,8.5-3.81,8.5-8.5,8.5ZM31.41,18.9c-3.58,0-6.5,2.92-6.5,6.5s2.92,6.5,6.5,6.5,6.5-2.92,6.5-6.5-2.92-6.5-6.5-6.5Z"/>
      </g>
    </g>
  </g>
</svg>