<?xml version="1.0" encoding="UTF-8"?>
<svg id="Layer_2" data-name="Layer 2" xmlns="http://www.w3.org/2000/svg" viewBox="0 0 448.8 448.8">
  <defs>
    <style>
      .cls-1 {
        fill: #fff;
      }
    </style>
  </defs>
  <g id="Layer_1-2" data-name="Layer 1">
    <g>
      <path class="cls-1" d="M448.8,0v448.8H0V0h448.8ZM213.55,10.42c-65.66,2.66-127.75,38.32-164.88,91.88C-22.4,204.86,8.63,344.49,114.76,408.33c95.49,57.44,219.33,31.19,283.84-58.79,73.22-102.14,43.85-243.39-62.87-308.33-37.64-22.91-77.98-32.57-122.19-30.78Z"/>
      <path d="M213.55,10.42c44.21-1.79,84.54,7.87,122.19,30.78,106.72,64.94,136.09,206.2,62.87,308.33-64.51,89.99-188.35,116.23-283.84,58.79C8.63,344.49-22.4,204.86,48.67,102.3,85.8,48.74,147.89,13.08,213.55,10.42ZM58.64,202.98h53.18c4.4-30.14,21.15-57.36,45.97-74.82,20.41-14.35,44.45-21.61,69.35-23.02h116.52c.14-.53-.22-.61-.45-.92-1.98-2.59-6.93-6.7-9.57-8.97-38.81-33.44-88.8-46.66-139.53-37.73-71.3,12.55-127.43,73.71-135.46,145.45ZM159.53,202.98h231.24c-2.4-19.18-7.87-37.82-16.38-55.11l-139.97-.2c-7.97.51-15.89,1.34-23.6,3.44-25.04,6.83-45.37,26.32-51.29,51.87ZM111.82,246.73h-53.18c6.41,51.94,37.05,98.1,81.84,124.63,31.69,18.77,68.5,25.81,105.15,21.48,36.61-4.32,71.56-21.67,97.12-47.97h-111.07c-26.95-.71-52.91-8.15-74.85-23.89-24.29-17.42-40.74-44.57-45-74.26ZM390.46,246.73h-230.93c5.46,25.33,25.51,44.51,50.07,51.57,7.7,2.21,14.74,3.03,22.7,3.43.61.03,1.19.34,1.81.31h138.89c.53.04.71-.11,1.01-.5.92-1.19,2.39-4.98,3.12-6.6,6.87-15.08,11.54-31.7,13.32-48.21Z"/>
      <path class="cls-1" d="M58.64,202.98c8.03-71.74,64.17-132.9,135.46-145.45,50.73-8.93,100.72,4.29,139.53,37.73,2.63,2.27,7.58,6.38,9.57,8.97.23.3.59.39.45.91h-116.52c-24.9,1.42-48.94,8.67-69.35,23.03-24.82,17.46-41.57,44.67-45.97,74.82h-53.18Z"/>
      <path class="cls-1" d="M111.82,246.73c4.26,29.69,20.72,56.84,45,74.26,21.94,15.74,47.9,23.18,74.85,23.9h111.07c-25.56,26.28-60.51,43.63-97.12,47.96-36.64,4.33-73.46-2.71-105.15-21.48-44.79-26.54-75.43-72.7-81.84-124.63h53.18Z"/>
      <path class="cls-1" d="M159.53,202.98c5.92-25.55,26.24-45.04,51.29-51.87,7.71-2.1,15.63-2.93,23.6-3.44l139.97.2c8.51,17.29,13.98,35.93,16.38,55.11h-231.24Z"/>
      <path class="cls-1" d="M390.46,246.73c-1.78,16.52-6.44,33.14-13.32,48.21-.74,1.62-2.2,5.41-3.12,6.6-.3.39-.49.54-1.01.5h-138.89c-.62.02-1.21-.29-1.81-.32-7.96-.4-15-1.22-22.7-3.43-24.56-7.06-44.61-26.24-50.07-51.57h230.93Z"/>
    </g>
  </g>
</svg>